<svg width="143" height="36" viewBox="0 0 143 36" fill="none" xmlns="http://www.w3.org/2000/svg">
<path d="M21.3545 27.901H4.82617L21.3545 13.2906V27.901ZM28.7002 27.901H23.1914V18.5905L28.7002 13.2906V27.901ZM32.2529 9.91956L30.8887 8.36096L23.2217 15.6871V8.67639L2.28223 27.6725H0.419922L24.46 5.86389V12.775L30.0635 7.41858L28.6992 5.85999L33.8418 4.67444L32.2529 9.91956Z" fill="#165DFF"/>
<path d="M123.536 24.8378C123.93 24.8378 124.3 24.7984 124.647 24.7196C125.009 24.6409 125.371 24.5385 125.733 24.4125V27.342C125.308 27.531 124.82 27.6885 124.269 27.8145C123.717 27.9405 123.064 28.0035 122.308 28.0035C121.504 28.0035 120.788 27.8775 120.158 27.6255C119.544 27.3578 119.055 26.9089 118.693 26.2789C118.347 25.6489 118.173 24.759 118.173 23.6093V17.7739H116.52V14.8444H118.504V12.1039H122.142V14.7971H125.592V17.7739H122.142V23.4675C122.142 23.9243 122.268 24.2708 122.52 24.507C122.772 24.7275 123.111 24.8378 123.536 24.8378Z" fill="#165DFF"/>
<path d="M115.034 23.8454C115.034 25.1212 114.586 26.137 113.688 26.893C112.806 27.6333 111.42 28.0034 109.53 28.0034C108.616 28.0034 107.813 27.9483 107.12 27.838C106.443 27.7278 105.758 27.5309 105.065 27.2474V24.0344C105.821 24.3809 106.608 24.6487 107.427 24.8377C108.246 25.0109 108.939 25.0975 109.506 25.0975C110.105 25.0975 110.538 25.0188 110.806 24.8613C111.073 24.7038 111.207 24.4833 111.207 24.1998C111.207 23.995 111.136 23.8139 110.995 23.6564C110.869 23.4989 110.601 23.3257 110.191 23.1367C109.798 22.9319 109.207 22.6642 108.419 22.3334C107.648 22.0027 107.01 21.664 106.506 21.3175C106.018 20.971 105.647 20.5615 105.395 20.089C105.159 19.6008 105.041 18.9944 105.041 18.2699C105.041 17.0414 105.514 16.12 106.459 15.5058C107.419 14.8758 108.687 14.5608 110.262 14.5608C111.097 14.5608 111.884 14.6474 112.625 14.8207C113.365 14.9939 114.129 15.2617 114.916 15.6239L113.782 18.3172C113.137 18.0337 112.507 17.8053 111.892 17.632C111.294 17.4588 110.75 17.3722 110.262 17.3722C109.349 17.3722 108.892 17.6084 108.892 18.0809C108.892 18.2542 108.955 18.4195 109.081 18.577C109.223 18.7188 109.483 18.8763 109.861 19.0495C110.254 19.2228 110.821 19.4669 111.562 19.7819C112.302 20.0812 112.932 20.404 113.452 20.7505C113.971 21.0813 114.365 21.4908 114.633 21.979C114.901 22.4673 115.034 23.0894 115.034 23.8454Z" fill="#165DFF"/>
<path d="M97.0673 14.5608C98.8943 14.5608 100.343 15.0648 101.414 16.0728C102.485 17.065 103.021 18.5298 103.021 20.467V22.3098H94.8229C94.8544 23.1603 95.13 23.8375 95.6498 24.3415C96.1695 24.8455 96.9098 25.0975 97.8705 25.0975C98.6895 25.0975 99.4376 25.0188 100.115 24.8613C100.808 24.7038 101.517 24.4518 102.241 24.1053V27.0584C101.595 27.3892 100.91 27.6254 100.186 27.7672C99.477 27.9247 98.595 28.0034 97.5398 28.0034C96.2325 28.0034 95.067 27.7672 94.0433 27.2947C93.0353 26.8222 92.2399 26.0977 91.6571 25.1212C91.0901 24.1289 90.8066 22.8768 90.8066 21.3648C90.8066 19.837 91.0665 18.5692 91.5863 17.5612C92.106 16.5532 92.8305 15.805 93.7598 15.3168C94.7048 14.8128 95.8073 14.5608 97.0673 14.5608ZM97.1381 17.3249C96.5239 17.3249 96.012 17.5218 95.6025 17.9155C95.2088 18.2935 94.9725 18.8999 94.8938 19.7347H99.3589C99.3431 19.0574 99.1541 18.4904 98.7919 18.0337C98.4296 17.5612 97.8784 17.3249 97.1381 17.3249Z" fill="#165DFF"/>
<path d="M80.8165 27.7672L75.8789 14.7971H80.0369L82.3994 22.3099C82.4782 22.5776 82.549 22.9084 82.612 23.3021C82.6908 23.6801 82.738 24.0266 82.7538 24.3416H82.8483C82.864 24.0109 82.9034 23.6644 82.9664 23.3021C83.0452 22.9399 83.1318 22.617 83.2263 22.3335L85.636 14.7971H89.7704L84.8328 27.7672H80.8165Z" fill="#165DFF"/>
<path d="M69.6394 14.5608C71.0097 14.5608 72.1122 14.9388 72.9469 15.6948C73.7974 16.435 74.2227 17.6399 74.2227 19.3094V27.7672H70.2537V20.4198C70.2537 19.522 70.1041 18.8448 69.8048 18.388C69.5056 17.9313 69.0331 17.7029 68.3873 17.7029C67.4266 17.7029 66.7729 18.0652 66.4264 18.7897C66.0799 19.4984 65.9067 20.5222 65.9067 21.8609V27.7672H61.9141V14.797H65.4814V16.4744H65.6704C66.0799 15.8444 66.6312 15.3719 67.3242 15.0569C68.0172 14.7262 68.7889 14.5608 69.6394 14.5608Z" fill="#165DFF"/>
<path d="M59.4303 27.7672H51.2324V25.4756H53.3114V13.1906H51.2324V10.8989H59.4303V13.1906H57.3513V25.4756H59.4303V27.7672Z" fill="#165DFF"/>
<path d="M46.0586 27.7673L45.0191 24.1526H39.1838L38.1443 27.7673H33.75L39.4909 10.8281H44.6411L50.4529 27.7673H46.0586ZM43.1291 17.4195C43.0504 17.136 42.9401 16.758 42.7984 16.2855C42.6724 15.7972 42.5385 15.3011 42.3968 14.7971C42.2708 14.2931 42.1684 13.8679 42.0896 13.5214C42.0266 13.8679 41.9243 14.301 41.7825 14.8207C41.6565 15.3247 41.5305 15.8209 41.4045 16.3091C41.2785 16.7816 41.1761 17.1517 41.0974 17.4195L40.1051 20.7979H44.1214L43.1291 17.4195Z" fill="#165DFF"/>
</svg>
